<svg xmlns="http://www.w3.org/2000/svg" viewBox="85 95 310 310" width="512" height="512">
  <defs>
    <linearGradient id="clock-stroke" x1="0%" y1="0%" x2="100%" y2="100%">
      <stop offset="0%" stop-color="#34D399"/>
      <stop offset="100%" stop-color="#34D399"/>
    </linearGradient>
    <linearGradient id="lightning" x1="0%" y1="0%" x2="0%" y2="100%">
      <stop offset="0%" stop-color="#FCD34D"/>
      <stop offset="100%" stop-color="#F59E0B"/>
    </linearGradient>
  </defs>

  <!-- Clock face -->
  <circle cx="240" cy="250" r="140" fill="none" stroke="url(#clock-stroke)" stroke-width="18"/>

  <!-- Clock center dot -->
  <circle cx="240" cy="250" r="10" fill="url(#clock-stroke)"/>

  <!-- Clock hour hand -->
  <line x1="240" y1="250" x2="240" y2="160" stroke="#34D399" stroke-width="14" stroke-linecap="round" transform="rotate(-60 240 250)"/>

  <!-- Clock minute hand -->
  <line x1="240" y1="250" x2="240" y2="140" stroke="#34D399" stroke-width="10" stroke-linecap="round" transform="rotate(60 240 250)"/>

  <!-- Lightning bolt -->
  <polygon
    points="340,140 300,260 340,260 280,380 380,230 340,230 380,140"
    fill="url(#lightning)"
  />

  <!-- Tick marks (12, 3, 6, 9 o'clock) -->
  <line x1="240" y1="118" x2="240" y2="130" stroke="#34D399" stroke-width="8" stroke-linecap="round"/>
  <line x1="240" y1="370" x2="240" y2="382" stroke="#34D399" stroke-width="8" stroke-linecap="round"/>
  <line x1="108" y1="250" x2="120" y2="250" stroke="#34D399" stroke-width="8" stroke-linecap="round"/>
  <line x1="360" y1="250" x2="372" y2="250" stroke="#34D399" stroke-width="8" stroke-linecap="round"/>
</svg>
