<svg xmlns="http://www.w3.org/2000/svg" viewBox="0 0 512 512" width="512" height="512">
  <defs>
    <linearGradient id="bg" x1="0%" y1="0%" x2="100%" y2="100%">
      <stop offset="0%" stop-color="#34D399"/>
      <stop offset="100%" stop-color="#34D399"/>
    </linearGradient>
  </defs>

  <!-- Rounded square background -->
  <rect width="512" height="512" rx="108" fill="url(#bg)"/>

  <!-- Lightning bolt (centered, scaled to ~412px height matching original clock footprint) -->
  <g transform="translate(91, 101.3125) scale(20.625)">
    <path d="M5.52.359A.5.5 0 0 1 6 0h4a.5.5 0 0 1 .474.658L8.694 6H12.5a.5.5 0 0 1 .395.807l-7 9a.5.5 0 0 1-.873-.454L6.823 9.5H3.5a.5.5 0 0 1-.48-.641l2.5-8.5z" fill="#FBBF24"/>
  </g>
</svg>
